<?xml version="1.0" standalone="no"?>
<!DOCTYPE svg PUBLIC "-//W3C//DTD SVG 20010904//EN"
 "http://www.w3.org/TR/2001/REC-SVG-20010904/DTD/svg10.dtd">
<svg version="1.0" xmlns="http://www.w3.org/2000/svg"
 width="510.000000pt" height="510.000000pt" viewBox="0 0 510.000000 510.000000"
 preserveAspectRatio="xMidYMid meet">
<metadata>
Created by potrace 1.14, written by Peter Selinger 2001-2017
</metadata>
<g transform="translate(0.000000,510.000000) scale(0.100000,-0.100000)"
fill="#000000" stroke="none">
<path d="M2103 5072 c-9 -15 -4 -28 30 -78 22 -32 44 -60 49 -62 4 -2 8 -10 8
-17 0 -8 10 -15 23 -17 15 -2 29 -18 45 -50 13 -26 21 -52 18 -57 -4 -5 -24
-12 -45 -16 -22 -4 -60 -21 -84 -38 -46 -33 -70 -36 -247 -28 -23 1 -28 12
-69 137 -25 74 -48 137 -52 140 -15 9 -26 -32 -27 -101 -1 -70 4 -84 53 -158
l17 -26 -64 4 c-34 2 -80 8 -100 13 -80 21 -228 -13 -228 -53 0 -18 7 -22 56
-29 22 -4 49 -8 59 -10 11 -2 43 3 70 10 28 8 68 17 90 20 22 3 47 10 56 15
29 15 29 -3 0 -43 -25 -34 -49 -48 -146 -90 -100 -43 -158 -72 -298 -150 -12
-7 -24 -15 -27 -18 -3 -3 -39 -27 -80 -55 -208 -140 -416 -342 -583 -567 -16
-21 -27 -38 -25 -39 41 -10 41 -10 98 66 89 121 269 305 395 405 159 126 425
284 554 328 30 11 32 10 26 -6 -13 -31 -13 -101 -1 -111 9 -8 29 14 78 87 l66
97 104 28 c104 28 170 43 243 55 48 8 236 8 285 -1 19 -3 62 -9 95 -12 80 -8
128 -15 133 -19 12 -13 -102 -84 -148 -91 -8 -1 -31 10 -50 24 -51 39 -129 71
-172 71 -15 0 -19 -6 -16 -27 3 -24 12 -31 73 -53 39 -14 79 -31 89 -37 18
-10 18 -12 -10 -25 -16 -9 -60 -25 -98 -38 -66 -22 -71 -22 -120 -7 -101 32
-146 28 -146 -12 0 -36 173 -66 204 -35 15 14 113 54 135 54 6 0 -3 -21 -19
-47 -16 -27 -31 -58 -33 -70 -2 -12 -6 -25 -9 -28 -7 -7 14 -65 23 -65 18 0
79 84 90 122 25 94 81 169 136 183 13 3 47 21 75 40 43 30 79 41 111 36 4 -1
27 -4 50 -7 23 -2 56 -7 72 -9 17 -2 57 -6 90 -10 33 -4 74 -9 90 -12 17 -2
44 -6 60 -8 17 -3 41 -7 55 -11 13 -3 38 -7 56 -9 49 -7 139 -32 181 -51 94
-43 183 -86 241 -119 73 -40 235 -150 252 -170 11 -14 -4 -18 -108 -30 -24 -3
-54 -8 -67 -11 -27 -7 -65 11 -65 31 0 40 -57 100 -101 107 -43 6 -36 -33 16
-92 25 -29 44 -55 41 -58 -11 -10 -134 -29 -209 -31 -84 -2 -95 6 -100 69 -1
17 -5 30 -9 30 -5 0 -8 7 -8 14 0 8 -12 27 -26 43 -18 20 -27 24 -33 15 -11
-19 -2 -92 15 -116 34 -49 19 -47 -109 14 -95 46 -106 54 -123 92 -25 56 -83
112 -100 97 -10 -8 -10 -19 2 -57 7 -26 14 -50 14 -53 0 -4 -22 -9 -49 -13
-59 -8 -85 -31 -57 -52 18 -13 133 -13 193 0 25 5 203 -77 203 -94 0 -5 -23
-22 -50 -38 -56 -30 -63 -57 -15 -58 46 0 93 17 121 45 23 22 35 26 102 27 43
2 95 9 117 16 22 8 60 16 83 17 39 2 43 1 38 -16 -18 -56 1 -169 27 -160 6 2
15 16 20 33 5 16 11 36 14 44 4 8 7 17 8 20 1 3 6 24 10 48 9 51 23 59 116 64
l64 3 3 -30 c8 -74 67 -225 89 -225 26 0 30 88 6 147 -22 55 -32 113 -19 113
12 0 56 -38 151 -129 114 -110 150 -151 293 -336 23 -29 72 -104 72 -110 0 -3
10 -19 22 -35 25 -35 19 -47 -14 -29 -12 7 -25 14 -28 14 -3 1 -21 6 -40 13
-19 6 -57 16 -83 21 -40 7 -50 6 -54 -6 -8 -20 6 -28 116 -63 144 -46 172 -68
219 -170 62 -134 152 -399 152 -446 0 -8 10 -14 24 -14 l24 0 -14 58 c-24 92
-73 241 -111 332 -40 99 -161 332 -227 440 -25 41 -46 78 -46 83 0 12 -81 115
-134 170 -15 16 -20 36 -20 96 -1 85 -14 110 -76 152 -30 21 -46 24 -109 22
-73 -1 -76 -1 -145 45 -39 25 -80 51 -91 58 -11 6 -43 24 -71 41 -47 29 -169
88 -260 128 -30 13 -46 28 -58 54 -8 21 -33 57 -53 81 -37 43 -38 46 -39 130
-1 85 -5 114 -16 126 -7 6 -34 -36 -30 -48 1 -5 -2 -8 -6 -8 -5 0 -9 -21 -11
-47 -1 -26 -4 -49 -6 -51 -5 -5 -238 69 -252 80 -7 6 -33 51 -59 101 -55 109
-51 104 -66 89 -21 -21 -18 -45 14 -104 16 -31 29 -61 27 -66 -7 -19 -152 48
-189 86 -41 43 -72 62 -100 62 -23 0 -26 -17 -6 -46 13 -19 109 -73 138 -78
29 -5 138 -49 133 -54 -3 -3 -28 -13 -57 -24 -59 -20 -74 -36 -51 -53 21 -15
62 -6 130 28 29 15 65 27 81 27 24 0 89 -17 142 -37 8 -4 17 -7 20 -8 3 -1 13
-5 23 -8 9 -4 24 -9 32 -12 29 -9 14 -23 -37 -35 -29 -7 -64 -18 -78 -25 -21
-11 -39 -10 -110 6 -83 18 -113 24 -195 35 -22 3 -51 8 -65 10 -14 3 -117 6
-230 9 -199 3 -205 4 -223 26 -13 16 -17 34 -14 61 4 37 30 88 45 88 10 0 46
61 47 80 0 20 -14 40 -30 40 -15 0 -60 -82 -75 -138 -6 -24 -16 -42 -21 -40
-6 2 -10 7 -9 12 1 5 -3 12 -8 15 -5 3 -24 38 -42 76 -39 81 -63 115 -93 132
-29 16 -30 16 -44 -5z m-303 -212 c0 -5 -5 -10 -11 -10 -5 0 -7 5 -4 10 3 6 8
10 11 10 2 0 4 -4 4 -10z m535 -131 c5 -6 3 -9 -5 -9 -8 0 -40 -3 -70 -6 -59
-7 -61 -4 -15 20 29 15 70 13 90 -5z m-260 -46 c-11 -2 -64 -15 -117 -29 -53
-13 -99 -24 -102 -24 -3 0 -1 13 5 28 l10 29 112 0 c62 1 103 -1 92 -4z m785
-17 c124 -19 119 -18 240 -46 52 -12 100 -27 105 -33 7 -7 7 -8 0 -4 -6 3 -33
8 -60 11 -28 4 -61 8 -75 10 -14 3 -47 7 -75 10 -27 3 -61 8 -75 10 -14 3 -47
7 -75 10 -46 5 -70 8 -180 21 -22 2 -69 7 -105 10 -102 9 -120 12 -127 19 -12
12 320 -2 427 -18z m523 -10 c20 -16 87 -98 87 -108 0 -4 -30 5 -67 19 -38 14
-92 33 -120 41 -29 8 -53 18 -53 21 0 7 96 38 120 40 8 0 23 -6 33 -13z
m-1572 -39 c-10 -9 -11 -8 -5 6 3 10 9 15 12 12 3 -3 0 -11 -7 -18z m2190
-384 c13 -17 13 -17 -6 -3 -11 8 -22 16 -24 17 -2 2 0 3 6 3 6 0 17 -8 24 -17z
m206 -43 c44 -26 65 -62 68 -115 2 -25 1 -45 -2 -45 -3 0 -30 25 -60 55 -30
30 -70 67 -89 81 -19 15 -34 30 -34 35 0 17 85 9 117 -11z m-99 -33 c41 -34
122 -116 169 -172 23 -27 53 -63 68 -80 31 -36 88 -115 82 -115 -3 0 -24 26
-48 58 -23 31 -109 123 -190 205 -131 130 -161 169 -81 104z"/>
<path d="M191 3936 c9 -23 22 -72 27 -111 5 -38 10 -367 10 -730 0 -685 -5
-794 -43 -851 l-15 -24 69 0 70 0 -19 43 c-10 23 -22 71 -26 107 -6 55 -13
1230 -7 1230 2 0 115 -165 301 -440 51 -74 100 -145 109 -158 9 -13 22 -32 27
-42 19 -34 298 -441 301 -438 20 27 417 614 437 646 9 15 20 32 25 37 10 13
208 305 252 373 18 28 39 52 45 52 13 0 13 -1186 1 -1275 -4 -27 -7 -56 -8
-62 0 -7 -5 -13 -10 -13 -6 0 -7 -3 -4 -7 4 -3 0 -17 -8 -30 l-15 -23 160 0
160 0 -14 23 c-36 57 -39 115 -41 847 -1 662 0 721 17 789 10 41 23 78 29 82
16 9 0 15 -40 15 -36 -1 -40 -5 -174 -206 -31 -47 -60 -89 -65 -95 -4 -5 -87
-126 -182 -268 -96 -143 -192 -284 -212 -314 -21 -30 -38 -59 -38 -63 0 -5 -4
-10 -8 -12 -5 -1 -52 -67 -105 -146 l-96 -143 -18 28 c-10 15 -21 33 -26 38
-7 9 -524 771 -716 1055 l-85 125 -42 1 -42 1 19 -41z"/>
<path d="M2750 3102 c-50 -14 -120 -56 -151 -89 -38 -39 -94 -123 -83 -123 4
0 2 -6 -4 -12 -5 -7 -13 -26 -16 -43 -3 -16 -9 -41 -12 -55 -9 -39 -11 -252
-3 -276 4 -13 3 -26 -4 -33 -6 -6 -7 -11 -2 -11 6 0 5 -4 -1 -8 -31 -21 -244
-359 -244 -387 0 -8 -4 -15 -9 -15 -5 0 -13 -10 -17 -22 -3 -12 -13 -37 -22
-57 -9 -20 -17 -43 -18 -52 -2 -9 -9 -29 -15 -45 -18 -45 -22 -144 -8 -186 36
-109 200 -127 386 -42 40 18 74 30 77 26 2 -4 2 -16 0 -27 -2 -11 -5 -34 -7
-51 -2 -17 -12 -46 -21 -65 -39 -75 -23 -131 44 -159 36 -15 80 -1 80 25 0 8
4 15 8 15 11 0 12 6 16 125 1 55 -1 108 -6 117 -5 10 -4 19 2 23 6 4 8 11 5
16 -18 28 -13 55 13 77 59 50 117 110 155 160 37 49 39 55 27 77 -26 49 -67
28 -110 -57 -7 -16 -35 -52 -61 -80 -52 -59 -49 -60 -64 32 -3 19 -8 49 -11
65 -3 17 -7 41 -8 55 -2 14 -6 34 -9 45 -6 20 -17 72 -22 110 -2 11 -4 20 -5
20 -1 0 -3 9 -5 20 -1 11 -5 38 -9 60 -3 22 -8 49 -10 61 -3 13 5 31 18 45 41
45 133 164 174 225 38 57 112 202 120 235 28 110 12 199 -42 234 -25 17 -104
34 -126 27z m-10 -112 c24 -13 21 -87 -5 -145 -10 -22 -18 -43 -17 -47 1 -5
-2 -8 -8 -8 -5 0 -10 -7 -10 -15 0 -8 -4 -15 -10 -15 -5 0 -10 -6 -10 -13 0
-7 -9 -23 -19 -34 -11 -12 -18 -23 -16 -25 2 -2 -14 -24 -36 -48 l-40 -45 5
105 c6 147 42 240 109 280 38 23 33 23 57 10z m-215 -790 c4 -24 8 -48 11 -51
2 -4 6 -22 8 -40 3 -19 8 -50 12 -69 4 -19 8 -45 8 -57 1 -13 3 -23 6 -23 3 0
6 -8 7 -17 0 -10 3 -38 7 -63 3 -25 8 -69 11 -97 l4 -53 -52 -30 c-124 -72
-245 -86 -297 -35 -46 47 -27 176 41 275 9 14 18 30 19 35 6 20 93 145 102
145 5 0 7 4 4 8 -3 5 3 15 12 24 9 8 32 34 51 57 18 23 35 40 36 39 2 -2 6
-23 10 -48z"/>
<path d="M3084 2628 c8 -13 21 -52 30 -88 13 -55 14 -171 12 -785 -2 -396 -5
-731 -8 -745 -6 -32 -16 -58 -32 -91 l-13 -25 69 -1 c62 0 82 7 59 21 -12 8
-30 87 -37 156 -8 90 -10 272 -2 276 4 3 5 11 2 18 -9 24 -11 110 -3 133 5 12
5 24 1 27 -7 4 -8 51 -2 66 1 3 1 16 0 30 -6 58 -5 96 2 117 4 12 4 24 0 27
-7 4 -8 51 -2 66 1 3 1 16 0 30 -6 58 -5 96 2 117 4 12 4 24 0 27 -9 5 -8 53
0 61 3 3 3 20 -1 38 -5 25 -6 143 -2 166 2 7 61 -79 61 -88 0 -5 4 -11 8 -13
7 -2 337 -484 367 -535 6 -9 15 -22 20 -29 6 -6 71 -101 145 -212 74 -110 135
-200 136 -199 31 47 323 477 381 562 46 66 86 127 90 135 4 8 9 17 13 20 3 3
48 68 100 145 161 239 179 265 183 257 7 -11 1 -1274 -6 -1301 -12 -47 -30
-96 -38 -107 -6 -7 39 -11 151 -11 146 0 178 5 150 22 -14 9 -29 71 -37 150
-10 96 -9 1365 1 1440 4 33 16 79 26 103 l19 43 -41 -3 c-48 -3 -24 26 -253
-313 -82 -121 -219 -323 -305 -450 -86 -126 -194 -285 -239 -352 -46 -68 -86
-123 -90 -123 -5 0 -187 267 -216 318 -5 9 -13 19 -16 22 -9 8 -103 149 -114
170 -5 11 -13 20 -17 20 -5 0 -8 5 -8 10 0 6 -8 20 -18 31 -11 10 -25 32 -33
47 -8 15 -17 29 -20 32 -3 3 -63 91 -134 195 -71 105 -161 236 -199 293 l-70
102 -43 0 c-43 0 -43 0 -29 -22z"/>
<path d="M215 1967 c2 -6 7 -30 10 -52 13 -92 85 -332 126 -422 10 -24 19 -47
19 -52 0 -10 25 -9 36 1 3 4 -10 46 -29 95 -41 104 -80 235 -105 352 -15 72
-21 85 -40 87 -13 3 -20 -1 -17 -9z"/>
<path d="M480 1344 c-47 -31 -91 -59 -99 -63 -7 -5 -12 -14 -10 -20 3 -8 26 2
64 27 33 21 66 42 74 46 11 7 -29 -62 -75 -129 -22 -31 -17 -37 29 -31 23 3
60 8 82 12 22 3 46 7 53 9 31 11 5 -14 -53 -50 -65 -40 -75 -54 -52 -73 9 -8
40 8 115 57 93 61 101 69 89 85 -15 20 -8 20 -184 -9 -26 -4 -27 -7 41 96 36
55 41 68 31 82 -7 9 -14 17 -16 17 -2 0 -42 -25 -89 -56z"/>
<path d="M4465 1068 c-114 -159 -157 -211 -280 -334 -158 -158 -321 -285 -490
-381 -48 -27 -69 -45 -71 -60 -2 -13 -1 -23 2 -23 9 0 145 80 224 133 142 95
227 165 369 307 134 133 310 357 294 374 -13 12 -32 5 -48 -16z"/>
<path d="M665 1042 c-60 -19 -112 -37 -114 -39 -3 -2 0 -8 6 -14 7 -7 22 -6
48 5 37 16 39 16 62 -6 19 -18 22 -28 17 -53 -4 -16 -11 -33 -17 -36 -13 -9 0
-59 17 -59 10 0 126 215 126 235 0 11 -38 2 -145 -33z m60 -36 c-14 -21 -20
-24 -32 -15 -19 16 -12 32 18 40 32 8 34 5 14 -25z"/>
<path d="M844 972 c-4 -20 -8 -39 -9 -42 0 -3 -4 -22 -9 -43 -4 -22 -22 -55
-43 -78 -34 -37 -35 -41 -20 -57 16 -15 19 -14 54 20 21 20 54 40 73 44 19 4
37 8 40 9 3 1 22 5 43 9 20 5 39 12 42 16 10 16 -25 18 -77 4 -79 -21 -78 -21
-57 46 15 49 16 65 7 80 -21 34 -36 31 -44 -8z"/>
<path d="M1033 803 c-11 -2 -28 -18 -36 -36 -14 -28 -14 -35 3 -78 15 -41 16
-51 4 -68 -25 -35 -76 2 -69 51 2 11 -2 15 -11 11 -21 -8 -17 -49 9 -77 31
-36 67 -42 99 -17 35 28 38 47 18 108 -16 49 -12 83 10 83 16 0 41 -32 36 -46
-3 -8 1 -14 9 -14 23 0 18 38 -10 65 -13 14 -28 24 -32 24 -4 -1 -18 -4 -30
-6z"/>
<path d="M1150 615 c-59 -87 -63 -119 -22 -158 61 -58 127 -50 170 21 12 20
33 54 47 74 14 20 20 40 15 43 -5 3 -26 -20 -47 -52 -63 -95 -73 -105 -108
-97 -35 7 -65 31 -65 51 0 8 23 48 51 89 49 73 56 104 25 104 -9 0 -38 -34
-66 -75z"/>
<path d="M1406 536 c-8 -14 -17 -31 -18 -38 -2 -7 -5 -15 -8 -18 -3 -3 -18
-32 -35 -65 -16 -33 -34 -63 -39 -66 -12 -9 8 -19 20 -11 6 4 25 36 43 72 18
36 35 67 37 69 2 2 1 -20 -1 -50 -9 -86 -8 -130 2 -140 5 -5 24 5 45 24 68 60
90 77 98 77 4 0 -9 -32 -29 -70 -30 -60 -33 -72 -21 -80 8 -5 20 -8 25 -7 6 2
34 50 63 107 52 102 54 119 16 120 -12 0 -126 -89 -132 -102 -2 -5 -8 -8 -13
-8 -7 0 -9 37 -6 95 4 84 3 97 -13 105 -14 8 -21 4 -34 -14z"/>
<path d="M3339 388 c-3 -11 -9 -105 -11 -176 -2 -61 0 -86 10 -89 8 -3 12 10
12 45 0 49 1 51 36 62 35 12 38 11 66 -19 29 -31 61 -40 73 -21 3 5 -19 35
-48 67 -30 32 -70 75 -89 96 -31 32 -46 43 -49 35z m56 -127 c-3 -6 -15 -11
-26 -11 -16 0 -19 5 -15 28 2 15 5 28 5 30 1 1 10 -6 22 -17 12 -11 18 -24 14
-30z"/>
<path d="M1801 344 c-17 -12 -22 -23 -18 -41 4 -20 -2 -29 -24 -42 -26 -14
-41 -37 -44 -66 -1 -5 8 -23 18 -38 16 -24 25 -28 56 -26 27 2 43 -3 59 -19
40 -40 51 -23 26 42 -3 9 -2 16 3 16 5 0 18 7 29 16 18 14 17 15 -17 9 -25 -4
-36 -1 -37 7 0 7 -3 22 -7 34 -5 15 0 25 19 38 32 20 33 50 4 70 -28 20 -38
20 -67 0z m55 -31 c-4 -26 -36 -29 -36 -4 0 14 6 21 19 21 13 0 18 -6 17 -17z
m-51 -89 c2 -11 7 -29 11 -42 6 -21 4 -23 -21 -20 -39 4 -50 39 -23 68 22 23
26 22 33 -6z"/>
<path d="M3150 321 c0 -5 -6 -16 -12 -23 -7 -7 -26 -33 -42 -56 -27 -40 -31
-42 -38 -23 -4 11 -9 33 -11 48 -3 23 -9 27 -27 25 -13 -1 -25 -4 -27 -6 -2
-1 3 -24 11 -49 8 -26 12 -47 10 -47 -2 0 1 -12 7 -27 6 -16 13 -41 15 -58 2
-16 5 -36 6 -42 2 -16 13 -16 38 -3 17 9 17 13 4 57 -8 25 -12 48 -10 51 3 2
18 -4 33 -14 90 -60 108 -68 138 -60 22 6 25 9 15 21 -7 8 -17 15 -22 15 -5 0
-39 20 -76 45 -37 25 -62 45 -56 45 6 0 20 18 33 40 12 22 29 46 37 55 14 13
13 15 -5 15 -12 0 -21 -4 -21 -9z"/>
<path d="M2089 288 c0 -7 -3 -22 -5 -33 -2 -11 -7 -40 -10 -65 -3 -25 -9 -61
-14 -81 -8 -40 1 -71 15 -49 4 7 9 26 11 43 7 69 13 109 17 114 5 5 22 -77 19
-89 -1 -5 2 -8 7 -8 4 0 8 -8 8 -18 0 -29 15 -62 27 -62 6 1 33 35 59 78 l49
77 -7 -55 c-14 -106 -13 -115 14 -115 21 0 24 5 27 40 2 22 9 75 17 118 14 79
10 93 -21 83 -15 -5 -89 -106 -83 -114 3 -4 -28 -33 -36 -33 -4 0 -9 13 -11
27 -2 15 -8 36 -13 46 -5 10 -7 23 -4 28 3 6 1 10 -5 10 -7 0 -10 7 -7 15 4 8
2 17 -4 20 -5 4 -7 10 -4 15 3 4 -2 11 -11 14 -24 9 -34 7 -35 -6z"/>
<path d="M2881 267 c-6 -8 -8 -17 -4 -21 4 -4 8 -26 9 -49 2 -23 3 -42 4 -42
2 0 7 -28 15 -82 5 -37 9 -42 30 -41 21 2 23 6 19 38 -6 40 -9 63 -19 140 -4
30 -9 58 -12 63 -7 11 -30 8 -42 -6z"/>
<path d="M2470 237 c-8 -12 -14 -25 -15 -29 0 -3 -3 -10 -7 -14 -5 -4 -8 -16
-8 -26 0 -10 -5 -18 -11 -18 -5 0 -7 -4 -4 -10 3 -5 1 -10 -4 -10 -6 0 -11 -8
-11 -18 0 -10 -6 -26 -13 -37 -20 -29 -27 -65 -13 -65 6 0 20 19 31 43 13 27
26 42 38 41 9 -1 26 -2 36 -3 13 -1 23 -13 32 -38 6 -21 17 -41 23 -45 21 -14
42 -8 42 12 0 11 -4 20 -8 20 -4 0 -8 7 -8 15 0 8 -4 23 -9 33 -6 9 -22 50
-37 90 -15 40 -30 75 -34 77 -3 2 -12 -6 -20 -18z m18 -95 c9 -27 8 -28 -19
-24 -19 3 -26 8 -22 16 4 6 8 14 9 19 3 15 4 17 13 17 5 0 13 -13 19 -28z"/>
<path d="M2659 253 c-13 -3 -15 -15 -11 -61 2 -31 5 -81 5 -109 1 -29 5 -53 9
-53 5 0 7 -5 6 -12 -2 -7 7 -12 22 -11 85 4 132 11 143 22 9 9 -4 11 -57 9
l-68 -3 -4 65 c-2 36 -5 84 -7 107 -2 43 -9 52 -38 46z"/>
</g>
</svg>
